HIERARCHY
ROOT hip
{
  OFFSET 0 58.0859 0
  CHANNELS 6 Xposition Yposition Zposition Zrotation Xrotation Yrotation
  JOINT abdomen
  {
    OFFSET -0.00304088 7.24046 -0.0131588
    CHANNELS 3 Zrotation Xrotation Yrotation
    JOINT chest
    {
      OFFSET -0.0034529 16.5323 -0.765324
      CHANNELS 3 Zrotation Xrotation Yrotation
      JOINT neck
      {
        OFFSET -1.71661e-005 36.4655 -4.32792
        CHANNELS 3 Zrotation Xrotation Yrotation
        JOINT head
        {
          OFFSET 0 10.4509 2.78237
          CHANNELS 3 Zrotation Xrotation Yrotation
          End Site
          {
            OFFSET 0 13.6483 2.8643
          }
        }
      }
      JOINT lCollar
      {
        OFFSET 3.05823 30.965 -6.75913
        CHANNELS 3 Zrotation Xrotation Yrotation
        JOINT lShldr
        {
          OFFSET 15.0645 0.0677262 -0.441116
          CHANNELS 3 Zrotation Xrotation Yrotation
          JOINT lForeArm
          {
            OFFSET 29.6373 0.773625 0.573948
            CHANNELS 3 Zrotation Xrotation Yrotation
            JOINT lHand
            {
              OFFSET 27.1742 0.78167 2.11781
              CHANNELS 3 Zrotation Xrotation Yrotation
              End Site
              {
                OFFSET 8.97646 -0.320343 0.148499
              }
            }
          }
        }
      }
      JOINT rCollar
      {
        OFFSET -3.05827 30.965 -6.75912
        CHANNELS 3 Zrotation Xrotation Yrotation
        JOINT rShldr
        {
          OFFSET -15.0645 0.0677185 -0.441078
          CHANNELS 3 Zrotation Xrotation Yrotation
          JOINT rForeArm
          {
            OFFSET -29.6373 0.773648 0.574028
            CHANNELS 3 Zrotation Xrotation Yrotation
            JOINT rHand
            {
              OFFSET -27.1742 0.781686 2.11789
              CHANNELS 3 Zrotation Xrotation Yrotation
              End Site
              {
                OFFSET -8.97645 -0.32034 0.148527
              }
            }
          }
        }
      }
    }
  }
  JOINT lThigh
  {
    OFFSET 8.73787 0 -1.14441e-005
    CHANNELS 3 Zrotation Xrotation Yrotation
    JOINT lShin
    {
      OFFSET -0.218639 -43.6387 -2.09099
      CHANNELS 3 Zrotation Xrotation Yrotation
      JOINT lFoot
      {
        OFFSET -0.769392 -43.3017 -5.75583
        CHANNELS 3 Zrotation Xrotation Yrotation
        JOINT lToe
        {
          OFFSET 2.46991 -8.89869 14.0045
          CHANNELS 3 Zrotation Xrotation Yrotation
          End Site
          {
            OFFSET -0.0326996 -0.013798 4.57021
          }
        }
      }
    }
  }
  JOINT rThigh
  {
    OFFSET -8.73786 0 1.90735e-005
    CHANNELS 3 Zrotation Xrotation Yrotation
    JOINT rShin
    {
      OFFSET 0.21854 -43.6387 -2.09099
      CHANNELS 3 Zrotation Xrotation Yrotation
      JOINT rFoot
      {
        OFFSET 0.76927 -43.3017 -5.75565
        CHANNELS 3 Zrotation Xrotation Yrotation
        JOINT rToe
        {
          OFFSET -2.37052 -8.8846 14.0306
          CHANNELS 3 Zrotation Xrotation Yrotation
          End Site
          {
            OFFSET 0.0327202 0 4.57022
          }
        }
      }
    }
  }
}
MOTION
Frames:	1
Frame Time:	0.0333333
0 58.0859 0 12.6089 25.9797 -26.4342 -0.699627 3.41144 2.76772 -3.25316 9.53991 8.58066 1.557e-005 -9.83424 3.68265e-006 6.49949 -16.6109 3.01619 -9.3739 -0.124405 -1.7422 -7.33578 32.4298 -42.9012 3.17581 -0.180777 -64.5764 34.3592 24.4503 -32.3196 9.3739 -0.124362 1.7422 43.4738 22.8185 27.6805 -2.42173 0.2093 48.1855 0.107068 9.74677 1.83252 122.215 -60.5529 106.522 -125.546 79.3819 116.681 -15.5934 -18.5606 9.76184 0.0389815 -0.108845 9.99937 -111.84 -48.5851 -113.462 143.798 75.4964 -134.526 2.36408 -18.4205 -16.6006 -1.53209e-006 2.98821e-006 -9.99999 
